Coordinates
version=1
nRows=34
nColumns=38
inDegrees=no

Units are S.I. units (second, meters, Newtons, ...)
If the header above contains a line with 'inDegrees', this indicates whether rotational values are in degrees (yes) or radians (no).

endheader
time	pelvis_tilt	pelvis_list	pelvis_rotation	pelvis_tx	pelvis_ty	pelvis_tz	hip_flexion_r	hip_adduction_r	hip_rotation_r	knee_angle_r	ankle_angle_r	subtalar_angle_r	mtp_angle_r	hip_flexion_l	hip_adduction_l	hip_rotation_l	knee_angle_l	ankle_angle_l	subtalar_angle_l	mtp_angle_l	lumbar_extension	lumbar_bending	lumbar_rotation	arm_flex_r	arm_add_r	arm_rot_r	elbow_flex_r	pro_sup_r	wrist_flex_r	wrist_dev_r	arm_flex_l	arm_add_l	arm_rot_l	elbow_flex_l	pro_sup_l	wrist_flex_l	wrist_dev_l
45	2.4598	1.48119	-0.755731	0.660656	0.677875	0.9384	-0.115286	-0.0526414	-0.290062	0.235229	-0.278751	0	0	-0.18591	-0.157335	-0.322748	0.0396982	-0.466278	0	0	-0.164704	0.148145	-0.193807	0.192731	-0.386498	0.6561	0.645542	1.02223	0	0	0.000839778	-0.218647	0.297981	0.693147	1.52797	0	0
45.01	2.46609	1.4808	-0.762934	0.660854	0.677661	0.938467	-0.114279	-0.053051	-0.28915	0.237816	-0.277988	0	0	-0.186196	-0.157221	-0.324	0.0404188	-0.466142	0	0	-0.166627	0.148176	-0.193051	0.192941	-0.387127	0.655023	0.645087	1.02329	0	0	0.002021	-0.219156	0.296067	0.693866	1.52733	0	0
45.02	2.47364	1.48018	-0.770655	0.660971	0.677479	0.938557	-0.114096	-0.0531174	-0.289156	0.239588	-0.277384	0	0	-0.186629	-0.157253	-0.324599	0.0410781	-0.465922	0	0	-0.168685	0.148434	-0.192877	0.192802	-0.387712	0.653591	0.644546	1.02347	0	0	0.00327912	-0.219671	0.294357	0.694008	1.52698	0	0
45.03	2.48324	1.47911	-0.780007	0.661042	0.677313	0.938687	-0.114797	-0.052741	-0.290094	0.241085	-0.276653	0	0	-0.187361	-0.157597	-0.32511	0.0420193	-0.465729	0	0	-0.171222	0.148962	-0.193017	0.192582	-0.388324	0.652047	0.643974	1.02314	0	0	0.00463478	-0.220042	0.292383	0.693651	1.52702	0	0
45.04	2.49151	1.47801	-0.788217	0.661147	0.677115	0.93881	-0.11486	-0.0525186	-0.291204	0.243278	-0.27611	0	0	-0.187898	-0.158115	-0.325779	0.0432568	-0.465516	0	0	-0.17385	0.149523	-0.192991	0.192847	-0.389151	0.651183	0.643062	1.02353	0	0	0.00599787	-0.220265	0.289935	0.693114	1.52693	0	0
45.05	2.5013	1.47678	-0.797903	0.661232	0.676867	0.938955	-0.114624	-0.0526114	-0.292113	0.246418	-0.275617	0	0	-0.18842	-0.158614	-0.326596	0.0448085	-0.465284	0	0	-0.176864	0.150176	-0.193197	0.193193	-0.389702	0.649078	0.641883	1.02244	0	0	0.00726903	-0.2204	0.286768	0.692731	1.52542	0	0
45.06	2.51142	1.47547	-0.808002	0.661333	0.676543	0.939115	-0.114431	-0.0527118	-0.292616	0.249128	-0.275374	0	0	-0.18869	-0.159195	-0.327576	0.0468651	-0.464953	0	0	-0.18033	0.15077	-0.193209	0.193974	-0.390322	0.64727	0.640388	1.02124	0	0	0.00861078	-0.220867	0.283974	0.692172	1.52433	0	0
45.07	2.51342	1.47636	-0.811058	0.661422	0.676066	0.93907	-0.110654	-0.0544989	-0.290664	0.253678	-0.274776	0	0	-0.186296	-0.158334	-0.328664	0.0495269	-0.46428	0	0	-0.182055	0.150334	-0.192323	0.195203	-0.391357	0.646554	0.638593	1.02127	0	0	0.00999988	-0.221108	0.280877	0.690715	1.52509	0	0
45.08	2.5061	1.47795	-0.80459	0.661502	0.67559	0.938944	-0.10569	-0.0559845	-0.288924	0.258569	-0.273585	0	0	-0.182271	-0.157776	-0.329303	0.0528789	-0.463277	0	0	-0.182521	0.150106	-0.191594	0.19663	-0.392474	0.647033	0.636028	1.02272	0	0	0.0113386	-0.221165	0.277381	0.688821	1.52561	0	0
45.09	2.49311	1.47986	-0.792352	0.66158	0.675076	0.938765	-0.0997805	-0.0573325	-0.287627	0.264238	-0.271937	0	0	-0.177197	-0.157477	-0.329861	0.0569195	-0.461885	0	0	-0.182426	0.150124	-0.191052	0.197941	-0.393341	0.646721	0.633242	1.02311	0	0	0.0125892	-0.221033	0.273614	0.68681	1.52564	0	0
45.1	2.48002	1.48196	-0.78148	0.661813	0.674353	0.938564	-0.0923467	-0.0590915	-0.28362	0.271725	-0.269681	0	0	-0.171785	-0.156881	-0.331744	0.0616695	-0.460075	0	0	-0.183028	0.149826	-0.189066	0.199877	-0.394336	0.646119	0.630609	1.02294	0	0	0.0141729	-0.221072	0.269869	0.685076	1.52569	0	0
45.11	2.46443	1.48434	-0.768355	0.662047	0.673526	0.938327	-0.0838536	-0.0610782	-0.278938	0.280101	-0.266926	0	0	-0.165512	-0.156266	-0.334416	0.0673958	-0.457886	0	0	-0.1837	0.149486	-0.186761	0.201702	-0.395334	0.6446	0.628211	1.02146	0	0	0.0159176	-0.221134	0.266175	0.683364	1.52609	0	0
45.12	2.44609	1.48697	-0.751879	0.662211	0.672652	0.938052	-0.0748999	-0.0631797	-0.274804	0.288642	-0.264016	0	0	-0.158217	-0.15578	-0.336911	0.0741506	-0.455325	0	0	-0.184075	0.149149	-0.184909	0.203771	-0.396558	0.644037	0.625505	1.02088	0	0	0.0178132	-0.221168	0.262565	0.681441	1.52679	0	0
45.13	2.42552	1.48962	-0.732765	0.662361	0.671722	0.937761	-0.0655552	-0.0652963	-0.271382	0.297735	-0.261078	0	0	-0.150142	-0.155636	-0.339234	0.0820035	-0.452388	0	0	-0.184469	0.148903	-0.183452	0.206275	-0.397807	0.643898	0.622455	1.02102	0	0	0.0197894	-0.2214	0.259023	0.679593	1.52787	0	0
45.14	2.35632	1.4956	-0.665903	0.662601	0.670761	0.93704	-0.0480089	-0.068536	-0.266985	0.313483	-0.249866	0	0	-0.134641	-0.156128	-0.344192	0.0953155	-0.440912	0	0	-0.17971	0.148331	-0.181809	0.20802	-0.398352	0.642642	0.618416	1.024	0	0	0.0204191	-0.21946	0.248315	0.676633	1.53989	0	0
45.15	2.32184	1.49841	-0.633034	0.662776	0.669622	0.936689	-0.0371042	-0.0704934	-0.262846	0.323242	-0.247427	0	0	-0.124418	-0.156636	-0.347119	0.105726	-0.436512	0	0	-0.180144	0.148412	-0.180037	0.210438	-0.399779	0.64138	0.61577	1.02483	0	0	0.0226341	-0.219814	0.244685	0.675302	1.54108	0	0
45.16	2.33249	1.49819	-0.64432	0.662854	0.668311	0.936745	-0.0331461	-0.0711813	-0.259468	0.327262	-0.252758	0	0	-0.119671	-0.157085	-0.347947	0.113223	-0.440114	0	0	-0.186111	0.14917	-0.178509	0.214499	-0.402254	0.642591	0.613812	1.02128	0	0	0.0264027	-0.222284	0.247375	0.675302	1.53249	0	0
45.17	2.29853	1.50066	-0.611702	0.662988	0.666919	0.936458	-0.0214027	-0.0730548	-0.255668	0.338833	-0.250061	0	0	-0.108325	-0.157996	-0.351459	0.125922	-0.435527	0	0	-0.188057	0.1496	-0.176776	0.217784	-0.403669	0.640464	0.610666	1.02051	0	0	0.0289566	-0.222704	0.242916	0.674788	1.53458	0	0
45.18	2.26431	1.50317	-0.578669	0.663133	0.665397	0.936141	-0.00914343	-0.0754024	-0.252472	0.351883	-0.24688	0	0	-0.09618	-0.159114	-0.355456	0.140062	-0.431021	0	0	-0.190496	0.149928	-0.175033	0.220861	-0.404895	0.636862	0.607744	1.01796	0	0	0.0316121	-0.223365	0.238474	0.675103	1.53597	0	0
45.19	2.22265	1.50558	-0.53802	0.663269	0.663736	0.935744	0.00319477	-0.0773417	-0.248596	0.364358	-0.24342	0	0	-0.0828838	-0.160701	-0.359787	0.15553	-0.425979	0	0	-0.193048	0.150498	-0.173209	0.224465	-0.406649	0.634835	0.604832	1.01694	0	0	0.0343289	-0.224355	0.23425	0.676138	1.53693	0	0
45.2	2.17166	1.50757	-0.487338	0.663343	0.661958	0.935263	0.0155803	-0.0787907	-0.24458	0.376044	-0.240405	0	0	-0.0682871	-0.163064	-0.363641	0.172517	-0.420161	0	0	-0.19559	0.151766	-0.171969	0.228108	-0.408499	0.632288	0.602126	1.01537	0	0	0.0369302	-0.225517	0.23014	0.678098	1.53715	0	0
45.21	2.11282	1.50905	-0.42794	0.663362	0.6601	0.934691	0.028026	-0.0798068	-0.241647	0.387875	-0.237445	0	0	-0.0522405	-0.166274	-0.366347	0.191536	-0.413725	0	0	-0.198118	0.153628	-0.171467	0.231669	-0.410336	0.628971	0.599641	1.01304	0	0	0.0393841	-0.227009	0.22634	0.680789	1.53723	0	0
45.22	1.99734	1.51133	-0.313467	0.663592	0.658182	0.933705	0.0464935	-0.080955	-0.236182	0.404776	-0.228549	0	0	-0.0309464	-0.170454	-0.371236	0.214954	-0.400399	0	0	-0.196418	0.155367	-0.167325	0.231661	-0.41224	0.617265	0.597722	1.01956	0	0	0.0448452	-0.230978	0.237621	0.681464	1.51692	0	0
45.23	1.93633	1.51097	-0.253397	0.663791	0.656113	0.933035	0.0591758	-0.0805622	-0.231111	0.417139	-0.227594	0	0	-0.0145583	-0.175137	-0.373595	0.235698	-0.396278	0	0	-0.200911	0.158164	-0.1659	0.237323	-0.414573	0.616462	0.595276	1.01848	0	0	0.0461183	-0.23193	0.228433	0.686776	1.52448	0	0
45.24	1.83311	1.51055	-0.150547	0.663892	0.653921	0.932025	0.0756007	-0.0802192	-0.226413	0.431659	-0.224099	0	0	0.00675415	-0.180769	-0.374998	0.260639	-0.387552	0	0	-0.202693	0.161506	-0.164804	0.242291	-0.416946	0.614017	0.592992	1.01754	0	0	0.047469	-0.232712	0.220172	0.692217	1.53006	0	0
45.25	1.72003	1.50939	-0.0378747	0.663989	0.651643	0.930826	0.093248	-0.0798145	-0.221067	0.446043	-0.220584	0	0	0.029642	-0.186733	-0.374897	0.286934	-0.377845	0	0	-0.203894	0.165057	-0.163129	0.246594	-0.419667	0.610598	0.591371	1.01613	0	0	0.0493894	-0.234071	0.214523	0.697715	1.53366	0	0
45.26	1.60459	1.50758	0.0762694	0.664179	0.649243	0.929451	0.112713	-0.0797291	-0.214983	0.462596	-0.216588	0	0	0.0535693	-0.192823	-0.374713	0.314578	-0.367644	0	0	-0.205044	0.168361	-0.160297	0.250633	-0.422351	0.60607	0.590044	1.01382	0	0	0.0515526	-0.235847	0.210251	0.703908	1.53545	0	0
45.27	1.49272	1.50511	0.186038	0.664447	0.646681	0.927933	0.133233	-0.0796165	-0.207565	0.480012	-0.212265	0	0	0.0778382	-0.198917	-0.373804	0.342531	-0.35746	0	0	-0.20658	0.171364	-0.156394	0.25509	-0.42545	0.602021	0.588985	1.01239	0	0	0.0539572	-0.23804	0.206906	0.711087	1.53559	0	0
45.28	1.38868	1.50154	0.289209	0.664572	0.644133	0.926281	0.154195	-0.0796286	-0.202548	0.498472	-0.20781	0	0	0.102496	-0.205106	-0.370508	0.370085	-0.347588	0	0	-0.207754	0.174886	-0.153554	0.259756	-0.428746	0.597958	0.587661	1.01262	0	0	0.0562771	-0.240241	0.203887	0.718637	1.535	0	0
45.29	1.29319	1.49723	0.384242	0.664633	0.641557	0.924482	0.176071	-0.0799893	-0.198448	0.518492	-0.203116	0	0	0.127275	-0.211055	-0.365737	0.396822	-0.337906	0	0	-0.208784	0.178536	-0.151111	0.264655	-0.431988	0.593731	0.586006	1.01521	0	0	0.0584663	-0.242407	0.200781	0.726784	1.53353	0	0
45.3	1.21017	1.49256	0.466821	0.664677	0.638892	0.922586	0.198536	-0.0807218	-0.194119	0.540167	-0.19801	0	0	0.151579	-0.216699	-0.36035	0.422626	-0.328537	0	0	-0.21047	0.182042	-0.148442	0.26946	-0.435009	0.588341	0.58438	1.01852	0	0	0.0607892	-0.244884	0.197982	0.735373	1.53221	0	0
45.31	1.13493	1.48797	0.541219	0.664764	0.636123	0.92061	0.221762	-0.0820811	-0.188513	0.56297	-0.192945	0	0	0.175189	-0.221573	-0.354872	0.44719	-0.319869	0	0	-0.212829	0.184834	-0.145288	0.274676	-0.43801	0.582923	0.582515	1.02384	0	0	0.0632739	-0.247736	0.195332	0.744429	1.53099	0	0
45.32	1.0682	1.48359	0.606586	0.664902	0.633242	0.918619	0.245012	-0.083625	-0.181826	0.586066	-0.187927	0	0	0.197754	-0.225693	-0.349958	0.470325	-0.312094	0	0	-0.21628	0.187012	-0.141441	0.28005	-0.440904	0.577055	0.580564	1.02987	0	0	0.0661614	-0.250617	0.192514	0.753855	1.52984	0	0
45.33	1.00924	1.47938	0.663582	0.665113	0.630243	0.916618	0.268276	-0.0852448	-0.173808	0.609094	-0.183637	0	0	0.219416	-0.229513	-0.345835	0.492519	-0.305083	0	0	-0.220857	0.188703	-0.137033	0.286	-0.443583	0.570856	0.578285	1.03738	0	0	0.0692348	-0.253728	0.189623	0.763816	1.5285	0	0
